<mxfile host="app.diagrams.net" modified="2020-09-16T07:59:45.797Z" agent="5.0 (Windows NT 10.0; Win64; x64) AppleWebKit/537.36 (KHTML, like Gecko) Chrome/84.0.4147.135 Safari/537.36" etag="kOloX2M6Uhs7vj5YJYIX" version="13.6.10" type="github" pages="2">
  <diagram id="prtHgNgQTEPvFCAcTncT" name="总体流程">
    <mxGraphModel dx="2858" dy="1019" grid="1" gridSize="10" guides="1" tooltips="1" connect="1" arrows="1" fold="1" page="1" pageScale="1" pageWidth="827" pageHeight="1169" math="0" shadow="0">
      <root>
        <mxCell id="0" />
        <mxCell id="1" parent="0" />
        <mxCell id="4veuvyN811ly8I1fCvGA-29" style="edgeStyle=orthogonalEdgeStyle;curved=1;rounded=0;orthogonalLoop=1;jettySize=auto;html=1;entryX=0.5;entryY=0;entryDx=0;entryDy=0;fontSize=16;fontColor=#007FFF;strokeColor=#007FFF;" parent="1" source="4veuvyN811ly8I1fCvGA-5" target="4veuvyN811ly8I1fCvGA-26" edge="1">
          <mxGeometry relative="1" as="geometry" />
        </mxCell>
        <mxCell id="4veuvyN811ly8I1fCvGA-30" value="订单创建&lt;br&gt;状态同步" style="edgeLabel;html=1;align=center;verticalAlign=middle;resizable=0;points=[];fontSize=16;fontColor=#007FFF;" parent="4veuvyN811ly8I1fCvGA-29" vertex="1" connectable="0">
          <mxGeometry x="-0.2526" relative="1" as="geometry">
            <mxPoint as="offset" />
          </mxGeometry>
        </mxCell>
        <mxCell id="4veuvyN811ly8I1fCvGA-49" style="edgeStyle=none;rounded=0;orthogonalLoop=1;jettySize=auto;html=1;entryX=0.5;entryY=0;entryDx=0;entryDy=0;dashed=1;strokeColor=#007FFF;fontSize=16;fontColor=#007FFF;" parent="1" source="4veuvyN811ly8I1fCvGA-5" target="4veuvyN811ly8I1fCvGA-18" edge="1">
          <mxGeometry relative="1" as="geometry" />
        </mxCell>
        <mxCell id="4veuvyN811ly8I1fCvGA-50" value="物流同步" style="edgeLabel;html=1;align=center;verticalAlign=middle;resizable=0;points=[];fontSize=16;fontColor=#007FFF;" parent="4veuvyN811ly8I1fCvGA-49" vertex="1" connectable="0">
          <mxGeometry x="-0.1464" y="6" relative="1" as="geometry">
            <mxPoint as="offset" />
          </mxGeometry>
        </mxCell>
        <mxCell id="4veuvyN811ly8I1fCvGA-5" value="" style="rounded=0;whiteSpace=wrap;html=1;dashed=1;" parent="1" vertex="1">
          <mxGeometry x="160" y="20" width="510" height="60" as="geometry" />
        </mxCell>
        <mxCell id="4veuvyN811ly8I1fCvGA-1" value="JDDJ" style="rounded=1;whiteSpace=wrap;html=1;" parent="1" vertex="1">
          <mxGeometry x="189" y="40" width="90" height="30" as="geometry" />
        </mxCell>
        <mxCell id="4veuvyN811ly8I1fCvGA-2" value="WMDJ" style="rounded=1;whiteSpace=wrap;html=1;" parent="1" vertex="1">
          <mxGeometry x="309" y="40" width="90" height="30" as="geometry" />
        </mxCell>
        <mxCell id="4veuvyN811ly8I1fCvGA-3" value="SAMS APP" style="rounded=1;whiteSpace=wrap;html=1;" parent="1" vertex="1">
          <mxGeometry x="429" y="40" width="90" height="30" as="geometry" />
        </mxCell>
        <mxCell id="4veuvyN811ly8I1fCvGA-4" value="3rd Party" style="rounded=1;whiteSpace=wrap;html=1;fillColor=#66B2FF;" parent="1" vertex="1">
          <mxGeometry x="549" y="40" width="90" height="30" as="geometry" />
        </mxCell>
        <mxCell id="4veuvyN811ly8I1fCvGA-15" style="edgeStyle=orthogonalEdgeStyle;rounded=0;orthogonalLoop=1;jettySize=auto;html=1;entryX=0.5;entryY=0;entryDx=0;entryDy=0;fontSize=16;curved=1;strokeColor=#66CC00;" parent="1" source="4veuvyN811ly8I1fCvGA-6" target="4veuvyN811ly8I1fCvGA-13" edge="1">
          <mxGeometry relative="1" as="geometry" />
        </mxCell>
        <mxCell id="4veuvyN811ly8I1fCvGA-16" value="登陆&lt;br&gt;角色和用户" style="edgeLabel;html=1;align=center;verticalAlign=middle;resizable=0;points=[];fontSize=16;fontColor=#66CC00;" parent="4veuvyN811ly8I1fCvGA-15" vertex="1" connectable="0">
          <mxGeometry x="0.2836" y="-31" relative="1" as="geometry">
            <mxPoint as="offset" />
          </mxGeometry>
        </mxCell>
        <mxCell id="4veuvyN811ly8I1fCvGA-20" style="edgeStyle=orthogonalEdgeStyle;curved=1;rounded=0;orthogonalLoop=1;jettySize=auto;html=1;entryX=0.5;entryY=0;entryDx=0;entryDy=0;strokeColor=#66CC00;fontSize=16;fontColor=#66CC00;" parent="1" source="4veuvyN811ly8I1fCvGA-6" target="4veuvyN811ly8I1fCvGA-17" edge="1">
          <mxGeometry relative="1" as="geometry" />
        </mxCell>
        <mxCell id="4veuvyN811ly8I1fCvGA-23" value="拣货管理" style="edgeLabel;html=1;align=center;verticalAlign=middle;resizable=0;points=[];fontSize=16;fontColor=#66CC00;" parent="4veuvyN811ly8I1fCvGA-20" vertex="1" connectable="0">
          <mxGeometry x="0.4691" y="-15" relative="1" as="geometry">
            <mxPoint as="offset" />
          </mxGeometry>
        </mxCell>
        <mxCell id="4veuvyN811ly8I1fCvGA-21" style="edgeStyle=orthogonalEdgeStyle;curved=1;rounded=0;orthogonalLoop=1;jettySize=auto;html=1;entryX=0.5;entryY=0;entryDx=0;entryDy=0;strokeColor=#66CC00;fontSize=16;fontColor=#66CC00;" parent="1" source="4veuvyN811ly8I1fCvGA-6" target="4veuvyN811ly8I1fCvGA-18" edge="1">
          <mxGeometry relative="1" as="geometry" />
        </mxCell>
        <mxCell id="4veuvyN811ly8I1fCvGA-24" value="物流管理" style="edgeLabel;html=1;align=center;verticalAlign=middle;resizable=0;points=[];fontSize=16;fontColor=#66CC00;" parent="4veuvyN811ly8I1fCvGA-21" vertex="1" connectable="0">
          <mxGeometry x="0.1809" y="2" relative="1" as="geometry">
            <mxPoint as="offset" />
          </mxGeometry>
        </mxCell>
        <mxCell id="4veuvyN811ly8I1fCvGA-22" style="edgeStyle=orthogonalEdgeStyle;curved=1;rounded=0;orthogonalLoop=1;jettySize=auto;html=1;strokeColor=#66CC00;fontSize=16;fontColor=#66CC00;" parent="1" source="4veuvyN811ly8I1fCvGA-6" target="4veuvyN811ly8I1fCvGA-19" edge="1">
          <mxGeometry relative="1" as="geometry">
            <mxPoint x="840" y="570" as="targetPoint" />
          </mxGeometry>
        </mxCell>
        <mxCell id="4veuvyN811ly8I1fCvGA-25" value="仓储管理&lt;br&gt;库存管理" style="edgeLabel;html=1;align=center;verticalAlign=middle;resizable=0;points=[];fontSize=16;fontColor=#66CC00;" parent="4veuvyN811ly8I1fCvGA-22" vertex="1" connectable="0">
          <mxGeometry x="0.4962" y="18" relative="1" as="geometry">
            <mxPoint as="offset" />
          </mxGeometry>
        </mxCell>
        <mxCell id="4veuvyN811ly8I1fCvGA-6" value="" style="rounded=0;whiteSpace=wrap;html=1;dashed=1;" parent="1" vertex="1">
          <mxGeometry x="1110" y="20" width="260" height="60" as="geometry" />
        </mxCell>
        <mxCell id="4veuvyN811ly8I1fCvGA-8" value="WMS" style="rounded=1;whiteSpace=wrap;html=1;fillColor=#66CC00;" parent="1" vertex="1">
          <mxGeometry x="1135" y="40" width="90" height="30" as="geometry" />
        </mxCell>
        <mxCell id="4veuvyN811ly8I1fCvGA-9" value="OFS" style="rounded=1;whiteSpace=wrap;html=1;fillColor=#66CC00;" parent="1" vertex="1">
          <mxGeometry x="1255" y="40" width="90" height="30" as="geometry" />
        </mxCell>
        <mxCell id="4veuvyN811ly8I1fCvGA-11" value="" style="endArrow=none;dashed=1;html=1;" parent="1" edge="1">
          <mxGeometry width="50" height="50" relative="1" as="geometry">
            <mxPoint x="-810" y="130" as="sourcePoint" />
            <mxPoint x="1640" y="120" as="targetPoint" />
          </mxGeometry>
        </mxCell>
        <mxCell id="4veuvyN811ly8I1fCvGA-13" value="用户中心" style="rounded=1;whiteSpace=wrap;html=1;fontSize=24;" parent="1" vertex="1">
          <mxGeometry x="1500" y="300" width="140" height="30" as="geometry" />
        </mxCell>
        <mxCell id="4veuvyN811ly8I1fCvGA-17" value="拣货中心" style="rounded=1;whiteSpace=wrap;html=1;fontSize=16;" parent="1" vertex="1">
          <mxGeometry x="1283" y="300" width="140" height="30" as="geometry" />
        </mxCell>
        <mxCell id="4veuvyN811ly8I1fCvGA-18" value="物流中心" style="rounded=1;whiteSpace=wrap;html=1;fontSize=16;" parent="1" vertex="1">
          <mxGeometry x="1067" y="300" width="140" height="30" as="geometry" />
        </mxCell>
        <mxCell id="4veuvyN811ly8I1fCvGA-19" value="仓储中心" style="rounded=1;whiteSpace=wrap;html=1;fontSize=24;fillColor=#FFFF00;" parent="1" vertex="1">
          <mxGeometry x="910" y="585" width="140" height="30" as="geometry" />
        </mxCell>
        <mxCell id="4veuvyN811ly8I1fCvGA-32" style="edgeStyle=orthogonalEdgeStyle;curved=1;rounded=0;orthogonalLoop=1;jettySize=auto;html=1;entryX=0.5;entryY=1;entryDx=0;entryDy=0;fontSize=16;fontColor=#66CC00;strokeColor=#007FFF;dashed=1;" parent="1" source="4veuvyN811ly8I1fCvGA-26" target="4veuvyN811ly8I1fCvGA-18" edge="1">
          <mxGeometry relative="1" as="geometry">
            <Array as="points">
              <mxPoint x="415" y="430" />
              <mxPoint x="1137" y="430" />
            </Array>
          </mxGeometry>
        </mxCell>
        <mxCell id="4veuvyN811ly8I1fCvGA-35" value="物流发单" style="edgeLabel;html=1;align=center;verticalAlign=middle;resizable=0;points=[];fontSize=16;fontColor=#007FFF;" parent="4veuvyN811ly8I1fCvGA-32" vertex="1" connectable="0">
          <mxGeometry x="0.2764" y="-1" relative="1" as="geometry">
            <mxPoint as="offset" />
          </mxGeometry>
        </mxCell>
        <mxCell id="4veuvyN811ly8I1fCvGA-33" style="edgeStyle=orthogonalEdgeStyle;curved=1;rounded=0;orthogonalLoop=1;jettySize=auto;html=1;entryX=0.5;entryY=1;entryDx=0;entryDy=0;fontSize=16;fontColor=#66CC00;strokeColor=#007FFF;dashed=1;" parent="1" source="4veuvyN811ly8I1fCvGA-26" target="4veuvyN811ly8I1fCvGA-17" edge="1">
          <mxGeometry relative="1" as="geometry">
            <Array as="points">
              <mxPoint x="415" y="510" />
              <mxPoint x="1353" y="510" />
            </Array>
          </mxGeometry>
        </mxCell>
        <mxCell id="4veuvyN811ly8I1fCvGA-36" value="拣货" style="edgeLabel;html=1;align=center;verticalAlign=middle;resizable=0;points=[];fontSize=16;fontColor=#007FFF;" parent="4veuvyN811ly8I1fCvGA-33" vertex="1" connectable="0">
          <mxGeometry x="0.0784" y="-1" relative="1" as="geometry">
            <mxPoint as="offset" />
          </mxGeometry>
        </mxCell>
        <mxCell id="4veuvyN811ly8I1fCvGA-45" style="edgeStyle=orthogonalEdgeStyle;curved=1;rounded=0;orthogonalLoop=1;jettySize=auto;html=1;entryX=0;entryY=0.5;entryDx=0;entryDy=0;dashed=1;strokeColor=#007FFF;fontSize=16;fontColor=#007FFF;" parent="1" source="4veuvyN811ly8I1fCvGA-26" target="4veuvyN811ly8I1fCvGA-39" edge="1">
          <mxGeometry relative="1" as="geometry">
            <Array as="points">
              <mxPoint x="415" y="1080" />
            </Array>
          </mxGeometry>
        </mxCell>
        <mxCell id="4veuvyN811ly8I1fCvGA-46" value="分发" style="edgeLabel;html=1;align=center;verticalAlign=middle;resizable=0;points=[];fontSize=16;fontColor=#007FFF;" parent="4veuvyN811ly8I1fCvGA-45" vertex="1" connectable="0">
          <mxGeometry x="-0.2857" y="93" relative="1" as="geometry">
            <mxPoint as="offset" />
          </mxGeometry>
        </mxCell>
        <mxCell id="4veuvyN811ly8I1fCvGA-52" style="edgeStyle=orthogonalEdgeStyle;curved=1;rounded=0;orthogonalLoop=1;jettySize=auto;html=1;dashed=1;strokeColor=#007FFF;fontSize=16;fontColor=#007FFF;" parent="1" source="4veuvyN811ly8I1fCvGA-26" target="4veuvyN811ly8I1fCvGA-19" edge="1">
          <mxGeometry relative="1" as="geometry">
            <Array as="points">
              <mxPoint x="415" y="680" />
              <mxPoint x="980" y="680" />
            </Array>
          </mxGeometry>
        </mxCell>
        <mxCell id="4veuvyN811ly8I1fCvGA-53" value="库存增减" style="edgeLabel;html=1;align=center;verticalAlign=middle;resizable=0;points=[];fontSize=16;fontColor=#007FFF;" parent="4veuvyN811ly8I1fCvGA-52" vertex="1" connectable="0">
          <mxGeometry x="0.3175" y="38" relative="1" as="geometry">
            <mxPoint as="offset" />
          </mxGeometry>
        </mxCell>
        <UserObject label="订单中心" link="data:page/id,FeuAwil6vQEWtCmiV8kQ" id="4veuvyN811ly8I1fCvGA-26">
          <mxCell style="rounded=1;whiteSpace=wrap;html=1;fontSize=16;" parent="1" vertex="1">
            <mxGeometry x="345" y="300" width="140" height="30" as="geometry" />
          </mxCell>
        </UserObject>
        <mxCell id="4veuvyN811ly8I1fCvGA-38" value="" style="endArrow=none;dashed=1;html=1;" parent="1" edge="1">
          <mxGeometry width="50" height="50" relative="1" as="geometry">
            <mxPoint x="-800" y="1000" as="sourcePoint" />
            <mxPoint x="1650" y="990" as="targetPoint" />
          </mxGeometry>
        </mxCell>
        <mxCell id="4veuvyN811ly8I1fCvGA-47" style="rounded=0;orthogonalLoop=1;jettySize=auto;html=1;dashed=1;strokeColor=#007FFF;fontSize=16;fontColor=#007FFF;" parent="1" source="4veuvyN811ly8I1fCvGA-39" edge="1">
          <mxGeometry relative="1" as="geometry">
            <mxPoint x="1140" y="330" as="targetPoint" />
          </mxGeometry>
        </mxCell>
        <mxCell id="4veuvyN811ly8I1fCvGA-48" value="物流同步" style="edgeLabel;html=1;align=center;verticalAlign=middle;resizable=0;points=[];fontSize=16;fontColor=#007FFF;" parent="4veuvyN811ly8I1fCvGA-47" vertex="1" connectable="0">
          <mxGeometry x="-0.3087" y="4" relative="1" as="geometry">
            <mxPoint x="-1" as="offset" />
          </mxGeometry>
        </mxCell>
        <mxCell id="4veuvyN811ly8I1fCvGA-39" value="第三方履约平台" style="rounded=0;whiteSpace=wrap;html=1;dashed=1;verticalAlign=top;align=left;" parent="1" vertex="1">
          <mxGeometry x="1010" y="1040" width="510" height="80" as="geometry" />
        </mxCell>
        <mxCell id="4veuvyN811ly8I1fCvGA-40" value="京东仓" style="rounded=1;whiteSpace=wrap;html=1;fillColor=#999999;" parent="1" vertex="1">
          <mxGeometry x="1039" y="1080" width="90" height="30" as="geometry" />
        </mxCell>
        <mxCell id="4veuvyN811ly8I1fCvGA-41" value="ECLP" style="rounded=1;whiteSpace=wrap;html=1;fillColor=#999999;" parent="1" vertex="1">
          <mxGeometry x="1159" y="1080" width="90" height="30" as="geometry" />
        </mxCell>
        <mxCell id="4veuvyN811ly8I1fCvGA-42" value="EDC" style="rounded=1;whiteSpace=wrap;html=1;fillColor=#999999;" parent="1" vertex="1">
          <mxGeometry x="1279" y="1080" width="90" height="30" as="geometry" />
        </mxCell>
        <mxCell id="4veuvyN811ly8I1fCvGA-43" value="3rd Party" style="rounded=1;whiteSpace=wrap;html=1;fillColor=#999999;" parent="1" vertex="1">
          <mxGeometry x="1399" y="1080" width="90" height="30" as="geometry" />
        </mxCell>
        <mxCell id="v_C8Kc2xc7OeOKdQOMcu-2" value="物流中心" style="rounded=1;whiteSpace=wrap;html=1;fontSize=16;" parent="1" vertex="1">
          <mxGeometry x="1067" y="300" width="140" height="30" as="geometry" />
        </mxCell>
        <mxCell id="v_C8Kc2xc7OeOKdQOMcu-28" style="rounded=0;orthogonalLoop=1;jettySize=auto;html=1;dashed=1;strokeColor=#FF9933;fontSize=16;fontColor=#FF9933;exitX=0.5;exitY=0;exitDx=0;exitDy=0;" parent="1" source="4veuvyN811ly8I1fCvGA-19" target="4veuvyN811ly8I1fCvGA-5" edge="1">
          <mxGeometry relative="1" as="geometry" />
        </mxCell>
        <mxCell id="v_C8Kc2xc7OeOKdQOMcu-29" value="库存价格同步" style="edgeLabel;html=1;align=center;verticalAlign=middle;resizable=0;points=[];fontSize=16;fontColor=#FF9933;" parent="v_C8Kc2xc7OeOKdQOMcu-28" vertex="1" connectable="0">
          <mxGeometry x="0.4223" y="1" relative="1" as="geometry">
            <mxPoint as="offset" />
          </mxGeometry>
        </mxCell>
        <mxCell id="v_C8Kc2xc7OeOKdQOMcu-4" value="物流中心" style="rounded=1;whiteSpace=wrap;html=1;fontSize=24;" parent="1" vertex="1">
          <mxGeometry x="1067" y="300" width="140" height="30" as="geometry" />
        </mxCell>
        <mxCell id="v_C8Kc2xc7OeOKdQOMcu-30" style="edgeStyle=none;rounded=0;orthogonalLoop=1;jettySize=auto;html=1;entryX=0.5;entryY=0;entryDx=0;entryDy=0;dashed=1;fontSize=16;fontColor=#FF9933;strokeColor=#007FFF;endArrow=none;endFill=0;" parent="1" source="v_C8Kc2xc7OeOKdQOMcu-5" target="v_C8Kc2xc7OeOKdQOMcu-7" edge="1">
          <mxGeometry relative="1" as="geometry" />
        </mxCell>
        <mxCell id="v_C8Kc2xc7OeOKdQOMcu-31" value="商品信息查询" style="edgeLabel;html=1;align=center;verticalAlign=middle;resizable=0;points=[];fontSize=16;fontColor=#007FFF;" parent="v_C8Kc2xc7OeOKdQOMcu-30" vertex="1" connectable="0">
          <mxGeometry x="-0.1783" y="4" relative="1" as="geometry">
            <mxPoint y="-1" as="offset" />
          </mxGeometry>
        </mxCell>
        <UserObject label="订单中心" link="data:page/id,FeuAwil6vQEWtCmiV8kQ" id="v_C8Kc2xc7OeOKdQOMcu-5">
          <mxCell style="rounded=1;whiteSpace=wrap;html=1;fontSize=24;" parent="1" vertex="1">
            <mxGeometry x="345" y="300" width="140" height="30" as="geometry" />
          </mxCell>
        </UserObject>
        <mxCell id="v_C8Kc2xc7OeOKdQOMcu-6" value="拣货中心" style="rounded=1;whiteSpace=wrap;html=1;fontSize=24;" parent="1" vertex="1">
          <mxGeometry x="1283" y="300" width="140" height="30" as="geometry" />
        </mxCell>
        <mxCell id="v_C8Kc2xc7OeOKdQOMcu-20" style="edgeStyle=none;rounded=0;orthogonalLoop=1;jettySize=auto;html=1;dashed=1;strokeColor=#FF9933;fontSize=16;fontColor=#FF9933;exitX=0.5;exitY=0;exitDx=0;exitDy=0;" parent="1" source="v_C8Kc2xc7OeOKdQOMcu-8" target="4veuvyN811ly8I1fCvGA-5" edge="1">
          <mxGeometry relative="1" as="geometry" />
        </mxCell>
        <mxCell id="v_C8Kc2xc7OeOKdQOMcu-21" value="GP同步&lt;br&gt;促销创建" style="edgeLabel;html=1;align=center;verticalAlign=middle;resizable=0;points=[];fontSize=16;fontColor=#FF9933;" parent="v_C8Kc2xc7OeOKdQOMcu-20" vertex="1" connectable="0">
          <mxGeometry x="-0.3075" y="-1" relative="1" as="geometry">
            <mxPoint as="offset" />
          </mxGeometry>
        </mxCell>
        <mxCell id="v_C8Kc2xc7OeOKdQOMcu-26" style="edgeStyle=orthogonalEdgeStyle;rounded=0;orthogonalLoop=1;jettySize=auto;html=1;entryX=0.5;entryY=1;entryDx=0;entryDy=0;dashed=1;strokeColor=#FF9933;fontSize=16;fontColor=#FF9933;elbow=vertical;curved=1;" parent="1" source="v_C8Kc2xc7OeOKdQOMcu-7" target="4veuvyN811ly8I1fCvGA-19" edge="1">
          <mxGeometry relative="1" as="geometry" />
        </mxCell>
        <mxCell id="v_C8Kc2xc7OeOKdQOMcu-27" value="库存&lt;br&gt;价格" style="edgeLabel;html=1;align=center;verticalAlign=middle;resizable=0;points=[];fontSize=16;fontColor=#FF9933;" parent="v_C8Kc2xc7OeOKdQOMcu-26" vertex="1" connectable="0">
          <mxGeometry x="-0.31" y="6" relative="1" as="geometry">
            <mxPoint as="offset" />
          </mxGeometry>
        </mxCell>
        <UserObject label="商品中心" id="v_C8Kc2xc7OeOKdQOMcu-7">
          <mxCell style="rounded=1;whiteSpace=wrap;html=1;fontSize=24;" parent="1" vertex="1">
            <mxGeometry x="-160" y="750" width="140" height="30" as="geometry" />
          </mxCell>
        </UserObject>
        <UserObject label="促销中心" id="v_C8Kc2xc7OeOKdQOMcu-8">
          <mxCell style="rounded=1;whiteSpace=wrap;html=1;fontSize=24;" parent="1" vertex="1">
            <mxGeometry x="-515" y="750" width="140" height="30" as="geometry" />
          </mxCell>
        </UserObject>
        <mxCell id="v_C8Kc2xc7OeOKdQOMcu-15" style="rounded=0;orthogonalLoop=1;jettySize=auto;html=1;entryX=0.5;entryY=1;entryDx=0;entryDy=0;dashed=1;fontSize=24;fontColor=#FF9933;strokeColor=#FF9933;" parent="1" source="v_C8Kc2xc7OeOKdQOMcu-10" target="v_C8Kc2xc7OeOKdQOMcu-7" edge="1">
          <mxGeometry relative="1" as="geometry" />
        </mxCell>
        <mxCell id="v_C8Kc2xc7OeOKdQOMcu-16" value="商品信息&lt;br style=&quot;font-size: 16px;&quot;&gt;价格&lt;br style=&quot;font-size: 16px;&quot;&gt;库存" style="edgeLabel;html=1;align=center;verticalAlign=middle;resizable=0;points=[];fontSize=16;fontColor=#FF9933;" parent="v_C8Kc2xc7OeOKdQOMcu-15" vertex="1" connectable="0">
          <mxGeometry x="0.3247" y="2" relative="1" as="geometry">
            <mxPoint x="-1" as="offset" />
          </mxGeometry>
        </mxCell>
        <mxCell id="v_C8Kc2xc7OeOKdQOMcu-17" style="edgeStyle=none;rounded=0;orthogonalLoop=1;jettySize=auto;html=1;entryX=0.5;entryY=1;entryDx=0;entryDy=0;dashed=1;strokeColor=#FF9933;fontSize=16;fontColor=#FF9933;" parent="1" source="v_C8Kc2xc7OeOKdQOMcu-10" target="v_C8Kc2xc7OeOKdQOMcu-8" edge="1">
          <mxGeometry relative="1" as="geometry" />
        </mxCell>
        <mxCell id="v_C8Kc2xc7OeOKdQOMcu-18" value="促销&lt;br&gt;GP" style="edgeLabel;html=1;align=center;verticalAlign=middle;resizable=0;points=[];fontSize=16;fontColor=#FF9933;" parent="v_C8Kc2xc7OeOKdQOMcu-17" vertex="1" connectable="0">
          <mxGeometry x="0.2347" y="-4" relative="1" as="geometry">
            <mxPoint as="offset" />
          </mxGeometry>
        </mxCell>
        <mxCell id="v_C8Kc2xc7OeOKdQOMcu-10" value="沃尔玛内部系统" style="rounded=0;whiteSpace=wrap;html=1;dashed=1;verticalAlign=top;align=left;" parent="1" vertex="1">
          <mxGeometry x="-700" y="1055" width="510" height="80" as="geometry" />
        </mxCell>
        <mxCell id="v_C8Kc2xc7OeOKdQOMcu-11" value="Smart" style="rounded=1;whiteSpace=wrap;html=1;fillColor=#FF9933;" parent="1" vertex="1">
          <mxGeometry x="-671" y="1095" width="90" height="30" as="geometry" />
        </mxCell>
        <mxCell id="v_C8Kc2xc7OeOKdQOMcu-12" value="Host" style="rounded=1;whiteSpace=wrap;html=1;fillColor=#FF9933;" parent="1" vertex="1">
          <mxGeometry x="-551" y="1095" width="90" height="30" as="geometry" />
        </mxCell>
        <mxCell id="v_C8Kc2xc7OeOKdQOMcu-13" value="DB2" style="rounded=1;whiteSpace=wrap;html=1;fillColor=#FF9933;" parent="1" vertex="1">
          <mxGeometry x="-431" y="1095" width="90" height="30" as="geometry" />
        </mxCell>
        <mxCell id="v_C8Kc2xc7OeOKdQOMcu-14" value="POS" style="rounded=1;whiteSpace=wrap;html=1;fillColor=#FF9933;" parent="1" vertex="1">
          <mxGeometry x="-311" y="1095" width="90" height="30" as="geometry" />
        </mxCell>
        <mxCell id="v_C8Kc2xc7OeOKdQOMcu-32" value="JDDJ" style="rounded=1;whiteSpace=wrap;html=1;fillColor=#66B2FF;" parent="1" vertex="1">
          <mxGeometry x="189" y="40" width="90" height="30" as="geometry" />
        </mxCell>
        <mxCell id="v_C8Kc2xc7OeOKdQOMcu-33" value="WMDJ" style="rounded=1;whiteSpace=wrap;html=1;fillColor=#66B2FF;" parent="1" vertex="1">
          <mxGeometry x="309" y="40" width="90" height="30" as="geometry" />
        </mxCell>
        <mxCell id="v_C8Kc2xc7OeOKdQOMcu-34" value="SAMS APP" style="rounded=1;whiteSpace=wrap;html=1;fillColor=#66B2FF;" parent="1" vertex="1">
          <mxGeometry x="429" y="40" width="90" height="30" as="geometry" />
        </mxCell>
        <UserObject label="商品中心" id="v_C8Kc2xc7OeOKdQOMcu-35">
          <mxCell style="rounded=1;whiteSpace=wrap;html=1;fontSize=24;" parent="1" vertex="1">
            <mxGeometry x="-160" y="750" width="140" height="30" as="geometry" />
          </mxCell>
        </UserObject>
        <UserObject label="促销中心" id="v_C8Kc2xc7OeOKdQOMcu-36">
          <mxCell style="rounded=1;whiteSpace=wrap;html=1;fontSize=24;" parent="1" vertex="1">
            <mxGeometry x="-515" y="750" width="140" height="30" as="geometry" />
          </mxCell>
        </UserObject>
        <UserObject label="订单中心" link="data:page/id,FeuAwil6vQEWtCmiV8kQ" id="v_C8Kc2xc7OeOKdQOMcu-37">
          <mxCell style="rounded=1;whiteSpace=wrap;html=1;fontSize=24;" parent="1" vertex="1">
            <mxGeometry x="345" y="300" width="140" height="30" as="geometry" />
          </mxCell>
        </UserObject>
        <mxCell id="v_C8Kc2xc7OeOKdQOMcu-39" value="物流中心" style="rounded=1;whiteSpace=wrap;html=1;fontSize=24;fillColor=#FFFF00;" parent="1" vertex="1">
          <mxGeometry x="1067" y="300" width="140" height="30" as="geometry" />
        </mxCell>
        <mxCell id="v_C8Kc2xc7OeOKdQOMcu-40" value="用户中心" style="rounded=1;whiteSpace=wrap;html=1;fontSize=24;" parent="1" vertex="1">
          <mxGeometry x="1500" y="300" width="140" height="30" as="geometry" />
        </mxCell>
        <mxCell id="v_C8Kc2xc7OeOKdQOMcu-41" value="拣货中心" style="rounded=1;whiteSpace=wrap;html=1;fontSize=24;" parent="1" vertex="1">
          <mxGeometry x="1283" y="300" width="140" height="30" as="geometry" />
        </mxCell>
        <mxCell id="v_C8Kc2xc7OeOKdQOMcu-42" value="用户中心" style="rounded=1;whiteSpace=wrap;html=1;fontSize=24;fillColor=#FFFF00;" parent="1" vertex="1">
          <mxGeometry x="1500" y="300" width="140" height="30" as="geometry" />
        </mxCell>
        <mxCell id="v_C8Kc2xc7OeOKdQOMcu-43" value="拣货中心" style="rounded=1;whiteSpace=wrap;html=1;fontSize=24;fillColor=#FFFF00;" parent="1" vertex="1">
          <mxGeometry x="1283" y="300" width="140" height="30" as="geometry" />
        </mxCell>
        <UserObject label="促销中心" id="v_C8Kc2xc7OeOKdQOMcu-45">
          <mxCell style="rounded=1;whiteSpace=wrap;html=1;fontSize=24;" parent="1" vertex="1">
            <mxGeometry x="-515" y="750" width="140" height="30" as="geometry" />
          </mxCell>
        </UserObject>
        <UserObject label="商品中心" id="v_C8Kc2xc7OeOKdQOMcu-46">
          <mxCell style="rounded=1;whiteSpace=wrap;html=1;fontSize=24;" parent="1" vertex="1">
            <mxGeometry x="-160" y="750" width="140" height="30" as="geometry" />
          </mxCell>
        </UserObject>
        <UserObject label="促销中心" id="v_C8Kc2xc7OeOKdQOMcu-47">
          <mxCell style="rounded=1;whiteSpace=wrap;html=1;fontSize=24;" parent="1" vertex="1">
            <mxGeometry x="-515" y="750" width="140" height="30" as="geometry" />
          </mxCell>
        </UserObject>
        <UserObject label="商品中心" id="v_C8Kc2xc7OeOKdQOMcu-48">
          <mxCell style="rounded=1;whiteSpace=wrap;html=1;fontSize=24;" parent="1" vertex="1">
            <mxGeometry x="-160" y="750" width="140" height="30" as="geometry" />
          </mxCell>
        </UserObject>
        <UserObject label="促销中心" id="v_C8Kc2xc7OeOKdQOMcu-50">
          <mxCell style="rounded=1;whiteSpace=wrap;html=1;fontSize=24;fillColor=#FFFF00;" parent="1" vertex="1">
            <mxGeometry x="-515" y="750" width="140" height="30" as="geometry" />
          </mxCell>
        </UserObject>
        <UserObject label="商品中心" id="v_C8Kc2xc7OeOKdQOMcu-51">
          <mxCell style="rounded=1;whiteSpace=wrap;html=1;fontSize=24;fillColor=#FFFF00;" parent="1" vertex="1">
            <mxGeometry x="-160" y="750" width="140" height="30" as="geometry" />
          </mxCell>
        </UserObject>
        <mxCell id="a-YrElFhbkZGYB3jlzv6-1" style="edgeStyle=orthogonalEdgeStyle;rounded=0;orthogonalLoop=1;jettySize=auto;html=1;entryX=1;entryY=0.5;entryDx=0;entryDy=0;dashed=1;endArrow=none;endFill=0;strokeColor=#007FFF;fontSize=16;fontColor=#007FFF;curved=1;" parent="1" source="v_C8Kc2xc7OeOKdQOMcu-53" target="v_C8Kc2xc7OeOKdQOMcu-10" edge="1">
          <mxGeometry relative="1" as="geometry">
            <Array as="points">
              <mxPoint x="415" y="1095" />
            </Array>
          </mxGeometry>
        </mxCell>
        <mxCell id="a-YrElFhbkZGYB3jlzv6-2" value="过机" style="edgeLabel;html=1;align=center;verticalAlign=middle;resizable=0;points=[];fontSize=16;fontColor=#007FFF;" parent="a-YrElFhbkZGYB3jlzv6-1" vertex="1" connectable="0">
          <mxGeometry x="-0.2263" y="-122" relative="1" as="geometry">
            <mxPoint as="offset" />
          </mxGeometry>
        </mxCell>
        <UserObject label="订单中心" link="data:page/id,FeuAwil6vQEWtCmiV8kQ" id="v_C8Kc2xc7OeOKdQOMcu-53">
          <mxCell style="rounded=1;whiteSpace=wrap;html=1;fontSize=24;fillColor=#FFFF00;" parent="1" vertex="1">
            <mxGeometry x="345" y="300" width="140" height="30" as="geometry" />
          </mxCell>
        </UserObject>
      </root>
    </mxGraphModel>
  </diagram>
  <diagram id="FeuAwil6vQEWtCmiV8kQ" name="1.0 订单流程">
    <mxGraphModel dx="2272" dy="713" grid="1" gridSize="10" guides="1" tooltips="1" connect="1" arrows="1" fold="1" page="1" pageScale="1" pageWidth="850" pageHeight="1100" math="0" shadow="0">
      <root>
        <mxCell id="uGnxBZqAEwpm-J9cj7Mj-0" />
        <mxCell id="uGnxBZqAEwpm-J9cj7Mj-1" parent="uGnxBZqAEwpm-J9cj7Mj-0" />
        <mxCell id="hw4l8XlQ-EuHjzOeu1GC-0" value="" style="rounded=0;whiteSpace=wrap;html=1;dashed=1;fontSize=16;fontColor=#007FFF;align=left;fillColor=none;" parent="uGnxBZqAEwpm-J9cj7Mj-1" vertex="1">
          <mxGeometry x="80" y="210" width="670" height="650" as="geometry" />
        </mxCell>
        <mxCell id="G1f2p_ybyInNnvEnaiqV-0" style="edgeStyle=orthogonalEdgeStyle;curved=1;rounded=0;orthogonalLoop=1;jettySize=auto;html=1;entryX=0.5;entryY=0;entryDx=0;entryDy=0;fontSize=16;fontColor=#007FFF;strokeColor=#007FFF;" parent="uGnxBZqAEwpm-J9cj7Mj-1" source="G1f2p_ybyInNnvEnaiqV-4" target="G1f2p_ybyInNnvEnaiqV-33" edge="1">
          <mxGeometry relative="1" as="geometry" />
        </mxCell>
        <mxCell id="G1f2p_ybyInNnvEnaiqV-1" value="订单创建&lt;br&gt;状态同步" style="edgeLabel;html=1;align=center;verticalAlign=middle;resizable=0;points=[];fontSize=16;fontColor=#007FFF;" parent="G1f2p_ybyInNnvEnaiqV-0" vertex="1" connectable="0">
          <mxGeometry x="-0.2526" relative="1" as="geometry">
            <mxPoint as="offset" />
          </mxGeometry>
        </mxCell>
        <mxCell id="G1f2p_ybyInNnvEnaiqV-4" value="" style="rounded=0;whiteSpace=wrap;html=1;dashed=1;" parent="uGnxBZqAEwpm-J9cj7Mj-1" vertex="1">
          <mxGeometry x="160" y="20" width="510" height="60" as="geometry" />
        </mxCell>
        <mxCell id="G1f2p_ybyInNnvEnaiqV-5" value="JDDJ" style="rounded=1;whiteSpace=wrap;html=1;" parent="uGnxBZqAEwpm-J9cj7Mj-1" vertex="1">
          <mxGeometry x="189" y="40" width="90" height="30" as="geometry" />
        </mxCell>
        <mxCell id="G1f2p_ybyInNnvEnaiqV-6" value="WMDJ" style="rounded=1;whiteSpace=wrap;html=1;" parent="uGnxBZqAEwpm-J9cj7Mj-1" vertex="1">
          <mxGeometry x="309" y="40" width="90" height="30" as="geometry" />
        </mxCell>
        <mxCell id="G1f2p_ybyInNnvEnaiqV-7" value="SAMS APP" style="rounded=1;whiteSpace=wrap;html=1;" parent="uGnxBZqAEwpm-J9cj7Mj-1" vertex="1">
          <mxGeometry x="429" y="40" width="90" height="30" as="geometry" />
        </mxCell>
        <mxCell id="G1f2p_ybyInNnvEnaiqV-8" value="3rd Party" style="rounded=1;whiteSpace=wrap;html=1;fillColor=#66B2FF;" parent="uGnxBZqAEwpm-J9cj7Mj-1" vertex="1">
          <mxGeometry x="549" y="40" width="90" height="30" as="geometry" />
        </mxCell>
        <mxCell id="G1f2p_ybyInNnvEnaiqV-17" value="" style="rounded=0;whiteSpace=wrap;html=1;dashed=1;" parent="uGnxBZqAEwpm-J9cj7Mj-1" vertex="1">
          <mxGeometry x="1110" y="20" width="260" height="60" as="geometry" />
        </mxCell>
        <mxCell id="G1f2p_ybyInNnvEnaiqV-18" value="WMS" style="rounded=1;whiteSpace=wrap;html=1;fillColor=#66CC00;" parent="uGnxBZqAEwpm-J9cj7Mj-1" vertex="1">
          <mxGeometry x="1135" y="40" width="90" height="30" as="geometry" />
        </mxCell>
        <mxCell id="G1f2p_ybyInNnvEnaiqV-19" value="OFS" style="rounded=1;whiteSpace=wrap;html=1;fillColor=#66CC00;" parent="uGnxBZqAEwpm-J9cj7Mj-1" vertex="1">
          <mxGeometry x="1255" y="40" width="90" height="30" as="geometry" />
        </mxCell>
        <mxCell id="G1f2p_ybyInNnvEnaiqV-20" value="" style="endArrow=none;dashed=1;html=1;" parent="uGnxBZqAEwpm-J9cj7Mj-1" edge="1">
          <mxGeometry width="50" height="50" relative="1" as="geometry">
            <mxPoint x="-810" y="130" as="sourcePoint" />
            <mxPoint x="1640" y="120" as="targetPoint" />
          </mxGeometry>
        </mxCell>
        <mxCell id="G1f2p_ybyInNnvEnaiqV-21" value="用户中心" style="rounded=1;whiteSpace=wrap;html=1;fontSize=24;" parent="uGnxBZqAEwpm-J9cj7Mj-1" vertex="1">
          <mxGeometry x="1500" y="300" width="140" height="30" as="geometry" />
        </mxCell>
        <mxCell id="G1f2p_ybyInNnvEnaiqV-22" value="拣货中心" style="rounded=1;whiteSpace=wrap;html=1;fontSize=16;" parent="uGnxBZqAEwpm-J9cj7Mj-1" vertex="1">
          <mxGeometry x="1283" y="300" width="140" height="30" as="geometry" />
        </mxCell>
        <mxCell id="G1f2p_ybyInNnvEnaiqV-23" value="物流中心" style="rounded=1;whiteSpace=wrap;html=1;fontSize=16;" parent="uGnxBZqAEwpm-J9cj7Mj-1" vertex="1">
          <mxGeometry x="1067" y="300" width="140" height="30" as="geometry" />
        </mxCell>
        <mxCell id="G1f2p_ybyInNnvEnaiqV-24" value="仓储中心" style="rounded=1;whiteSpace=wrap;html=1;fontSize=24;fillColor=#FFFF00;" parent="uGnxBZqAEwpm-J9cj7Mj-1" vertex="1">
          <mxGeometry x="910" y="585" width="140" height="30" as="geometry" />
        </mxCell>
        <UserObject label="订单中心" id="G1f2p_ybyInNnvEnaiqV-33">
          <mxCell style="rounded=1;whiteSpace=wrap;html=1;fontSize=16;" parent="uGnxBZqAEwpm-J9cj7Mj-1" vertex="1">
            <mxGeometry x="345" y="300" width="140" height="30" as="geometry" />
          </mxCell>
        </UserObject>
        <mxCell id="G1f2p_ybyInNnvEnaiqV-34" value="" style="endArrow=none;dashed=1;html=1;" parent="uGnxBZqAEwpm-J9cj7Mj-1" edge="1">
          <mxGeometry width="50" height="50" relative="1" as="geometry">
            <mxPoint x="-800" y="1000" as="sourcePoint" />
            <mxPoint x="1650" y="990" as="targetPoint" />
          </mxGeometry>
        </mxCell>
        <mxCell id="G1f2p_ybyInNnvEnaiqV-37" value="第三方履约平台" style="rounded=0;whiteSpace=wrap;html=1;dashed=1;verticalAlign=top;align=left;" parent="uGnxBZqAEwpm-J9cj7Mj-1" vertex="1">
          <mxGeometry x="1010" y="1040" width="510" height="80" as="geometry" />
        </mxCell>
        <mxCell id="G1f2p_ybyInNnvEnaiqV-38" value="京东仓" style="rounded=1;whiteSpace=wrap;html=1;fillColor=#999999;" parent="uGnxBZqAEwpm-J9cj7Mj-1" vertex="1">
          <mxGeometry x="1039" y="1080" width="90" height="30" as="geometry" />
        </mxCell>
        <mxCell id="G1f2p_ybyInNnvEnaiqV-39" value="ECLP" style="rounded=1;whiteSpace=wrap;html=1;fillColor=#999999;" parent="uGnxBZqAEwpm-J9cj7Mj-1" vertex="1">
          <mxGeometry x="1159" y="1080" width="90" height="30" as="geometry" />
        </mxCell>
        <mxCell id="G1f2p_ybyInNnvEnaiqV-40" value="EDC" style="rounded=1;whiteSpace=wrap;html=1;fillColor=#999999;" parent="uGnxBZqAEwpm-J9cj7Mj-1" vertex="1">
          <mxGeometry x="1279" y="1080" width="90" height="30" as="geometry" />
        </mxCell>
        <mxCell id="G1f2p_ybyInNnvEnaiqV-41" value="3rd Party" style="rounded=1;whiteSpace=wrap;html=1;fillColor=#999999;" parent="uGnxBZqAEwpm-J9cj7Mj-1" vertex="1">
          <mxGeometry x="1399" y="1080" width="90" height="30" as="geometry" />
        </mxCell>
        <mxCell id="G1f2p_ybyInNnvEnaiqV-42" value="物流中心" style="rounded=1;whiteSpace=wrap;html=1;fontSize=16;" parent="uGnxBZqAEwpm-J9cj7Mj-1" vertex="1">
          <mxGeometry x="1067" y="300" width="140" height="30" as="geometry" />
        </mxCell>
        <mxCell id="G1f2p_ybyInNnvEnaiqV-45" value="物流中心" style="rounded=1;whiteSpace=wrap;html=1;fontSize=24;" parent="uGnxBZqAEwpm-J9cj7Mj-1" vertex="1">
          <mxGeometry x="1067" y="300" width="140" height="30" as="geometry" />
        </mxCell>
        <UserObject label="订单中心" id="G1f2p_ybyInNnvEnaiqV-48">
          <mxCell style="rounded=1;whiteSpace=wrap;html=1;fontSize=24;" parent="uGnxBZqAEwpm-J9cj7Mj-1" vertex="1">
            <mxGeometry x="345" y="300" width="140" height="30" as="geometry" />
          </mxCell>
        </UserObject>
        <mxCell id="G1f2p_ybyInNnvEnaiqV-49" value="拣货中心" style="rounded=1;whiteSpace=wrap;html=1;fontSize=24;" parent="uGnxBZqAEwpm-J9cj7Mj-1" vertex="1">
          <mxGeometry x="1283" y="300" width="140" height="30" as="geometry" />
        </mxCell>
        <UserObject label="商品中心" id="G1f2p_ybyInNnvEnaiqV-54">
          <mxCell style="rounded=1;whiteSpace=wrap;html=1;fontSize=24;" parent="uGnxBZqAEwpm-J9cj7Mj-1" vertex="1">
            <mxGeometry x="-160" y="750" width="140" height="30" as="geometry" />
          </mxCell>
        </UserObject>
        <mxCell id="G1f2p_ybyInNnvEnaiqV-60" value="沃尔玛内部系统" style="rounded=0;whiteSpace=wrap;html=1;dashed=1;verticalAlign=top;align=left;" parent="uGnxBZqAEwpm-J9cj7Mj-1" vertex="1">
          <mxGeometry x="-700" y="1055" width="510" height="80" as="geometry" />
        </mxCell>
        <mxCell id="G1f2p_ybyInNnvEnaiqV-61" value="Smart" style="rounded=1;whiteSpace=wrap;html=1;fillColor=#FF9933;" parent="uGnxBZqAEwpm-J9cj7Mj-1" vertex="1">
          <mxGeometry x="-671" y="1095" width="90" height="30" as="geometry" />
        </mxCell>
        <mxCell id="G1f2p_ybyInNnvEnaiqV-62" value="Host" style="rounded=1;whiteSpace=wrap;html=1;fillColor=#FF9933;" parent="uGnxBZqAEwpm-J9cj7Mj-1" vertex="1">
          <mxGeometry x="-551" y="1095" width="90" height="30" as="geometry" />
        </mxCell>
        <mxCell id="G1f2p_ybyInNnvEnaiqV-63" value="DB2" style="rounded=1;whiteSpace=wrap;html=1;fillColor=#FF9933;" parent="uGnxBZqAEwpm-J9cj7Mj-1" vertex="1">
          <mxGeometry x="-431" y="1095" width="90" height="30" as="geometry" />
        </mxCell>
        <mxCell id="G1f2p_ybyInNnvEnaiqV-64" value="POS" style="rounded=1;whiteSpace=wrap;html=1;fillColor=#FF9933;" parent="uGnxBZqAEwpm-J9cj7Mj-1" vertex="1">
          <mxGeometry x="-311" y="1095" width="90" height="30" as="geometry" />
        </mxCell>
        <mxCell id="G1f2p_ybyInNnvEnaiqV-65" value="JDDJ" style="rounded=1;whiteSpace=wrap;html=1;fillColor=#66B2FF;" parent="uGnxBZqAEwpm-J9cj7Mj-1" vertex="1">
          <mxGeometry x="189" y="40" width="90" height="30" as="geometry" />
        </mxCell>
        <mxCell id="G1f2p_ybyInNnvEnaiqV-66" value="WMDJ" style="rounded=1;whiteSpace=wrap;html=1;fillColor=#66B2FF;" parent="uGnxBZqAEwpm-J9cj7Mj-1" vertex="1">
          <mxGeometry x="309" y="40" width="90" height="30" as="geometry" />
        </mxCell>
        <mxCell id="G1f2p_ybyInNnvEnaiqV-67" value="SAMS APP" style="rounded=1;whiteSpace=wrap;html=1;fillColor=#66B2FF;" parent="uGnxBZqAEwpm-J9cj7Mj-1" vertex="1">
          <mxGeometry x="429" y="40" width="90" height="30" as="geometry" />
        </mxCell>
        <UserObject label="商品中心" id="G1f2p_ybyInNnvEnaiqV-68">
          <mxCell style="rounded=1;whiteSpace=wrap;html=1;fontSize=24;" parent="uGnxBZqAEwpm-J9cj7Mj-1" vertex="1">
            <mxGeometry x="-160" y="750" width="140" height="30" as="geometry" />
          </mxCell>
        </UserObject>
        <UserObject label="订单中心" id="G1f2p_ybyInNnvEnaiqV-70">
          <mxCell style="rounded=1;whiteSpace=wrap;html=1;fontSize=24;" parent="uGnxBZqAEwpm-J9cj7Mj-1" vertex="1">
            <mxGeometry x="345" y="300" width="140" height="30" as="geometry" />
          </mxCell>
        </UserObject>
        <mxCell id="G1f2p_ybyInNnvEnaiqV-71" value="物流中心" style="rounded=1;whiteSpace=wrap;html=1;fontSize=24;fillColor=#FFFF00;" parent="uGnxBZqAEwpm-J9cj7Mj-1" vertex="1">
          <mxGeometry x="1067" y="300" width="140" height="30" as="geometry" />
        </mxCell>
        <mxCell id="G1f2p_ybyInNnvEnaiqV-72" value="用户中心" style="rounded=1;whiteSpace=wrap;html=1;fontSize=24;" parent="uGnxBZqAEwpm-J9cj7Mj-1" vertex="1">
          <mxGeometry x="1500" y="300" width="140" height="30" as="geometry" />
        </mxCell>
        <mxCell id="G1f2p_ybyInNnvEnaiqV-73" value="拣货中心" style="rounded=1;whiteSpace=wrap;html=1;fontSize=24;" parent="uGnxBZqAEwpm-J9cj7Mj-1" vertex="1">
          <mxGeometry x="1283" y="300" width="140" height="30" as="geometry" />
        </mxCell>
        <mxCell id="G1f2p_ybyInNnvEnaiqV-74" value="用户中心" style="rounded=1;whiteSpace=wrap;html=1;fontSize=24;fillColor=#FFFF00;" parent="uGnxBZqAEwpm-J9cj7Mj-1" vertex="1">
          <mxGeometry x="1500" y="300" width="140" height="30" as="geometry" />
        </mxCell>
        <mxCell id="G1f2p_ybyInNnvEnaiqV-75" value="拣货中心" style="rounded=1;whiteSpace=wrap;html=1;fontSize=24;fillColor=#FFFF00;" parent="uGnxBZqAEwpm-J9cj7Mj-1" vertex="1">
          <mxGeometry x="1283" y="300" width="140" height="30" as="geometry" />
        </mxCell>
        <UserObject label="商品中心" id="G1f2p_ybyInNnvEnaiqV-77">
          <mxCell style="rounded=1;whiteSpace=wrap;html=1;fontSize=24;" parent="uGnxBZqAEwpm-J9cj7Mj-1" vertex="1">
            <mxGeometry x="-160" y="750" width="140" height="30" as="geometry" />
          </mxCell>
        </UserObject>
        <UserObject label="商品中心" id="G1f2p_ybyInNnvEnaiqV-79">
          <mxCell style="rounded=1;whiteSpace=wrap;html=1;fontSize=24;" parent="uGnxBZqAEwpm-J9cj7Mj-1" vertex="1">
            <mxGeometry x="-160" y="750" width="140" height="30" as="geometry" />
          </mxCell>
        </UserObject>
        <UserObject label="商品中心" id="G1f2p_ybyInNnvEnaiqV-81">
          <mxCell style="rounded=1;whiteSpace=wrap;html=1;fontSize=24;fillColor=#FFFF00;" parent="uGnxBZqAEwpm-J9cj7Mj-1" vertex="1">
            <mxGeometry x="-160" y="750" width="140" height="30" as="geometry" />
          </mxCell>
        </UserObject>
        <mxCell id="hw4l8XlQ-EuHjzOeu1GC-4" style="edgeStyle=orthogonalEdgeStyle;curved=1;rounded=0;orthogonalLoop=1;jettySize=auto;html=1;endArrow=classic;endFill=1;strokeColor=#007FFF;fontSize=16;fontColor=#007FFF;" parent="uGnxBZqAEwpm-J9cj7Mj-1" source="G1f2p_ybyInNnvEnaiqV-82" target="hw4l8XlQ-EuHjzOeu1GC-1" edge="1">
          <mxGeometry relative="1" as="geometry" />
        </mxCell>
        <mxCell id="b2VJfBO16cCy8NR5ymIb-0" value="转换成订单中心标准数据" style="edgeLabel;html=1;align=center;verticalAlign=middle;resizable=0;points=[];fontSize=16;fontColor=#007FFF;" parent="hw4l8XlQ-EuHjzOeu1GC-4" vertex="1" connectable="0">
          <mxGeometry x="-0.3186" relative="1" as="geometry">
            <mxPoint as="offset" />
          </mxGeometry>
        </mxCell>
        <UserObject label="订单适配层" id="G1f2p_ybyInNnvEnaiqV-82">
          <mxCell style="rounded=1;whiteSpace=wrap;html=1;fontSize=24;fillColor=#FFFF00;" parent="uGnxBZqAEwpm-J9cj7Mj-1" vertex="1">
            <mxGeometry x="345" y="300" width="140" height="30" as="geometry" />
          </mxCell>
        </UserObject>
        <mxCell id="hw4l8XlQ-EuHjzOeu1GC-5" style="edgeStyle=orthogonalEdgeStyle;curved=1;rounded=0;orthogonalLoop=1;jettySize=auto;html=1;entryX=0.5;entryY=0;entryDx=0;entryDy=0;endArrow=classic;endFill=1;strokeColor=#007FFF;fontSize=16;fontColor=#007FFF;" parent="uGnxBZqAEwpm-J9cj7Mj-1" source="hw4l8XlQ-EuHjzOeu1GC-1" target="hw4l8XlQ-EuHjzOeu1GC-2" edge="1">
          <mxGeometry relative="1" as="geometry" />
        </mxCell>
        <UserObject label="订单中心" id="hw4l8XlQ-EuHjzOeu1GC-1">
          <mxCell style="rounded=1;whiteSpace=wrap;html=1;fontSize=24;fillColor=#FFFF00;" parent="uGnxBZqAEwpm-J9cj7Mj-1" vertex="1">
            <mxGeometry x="345" y="530" width="140" height="30" as="geometry" />
          </mxCell>
        </UserObject>
        <mxCell id="hw4l8XlQ-EuHjzOeu1GC-6" style="edgeStyle=orthogonalEdgeStyle;curved=1;rounded=0;orthogonalLoop=1;jettySize=auto;html=1;entryX=1;entryY=0.5;entryDx=0;entryDy=0;endArrow=classic;endFill=1;strokeColor=#007FFF;fontSize=16;fontColor=#007FFF;" parent="uGnxBZqAEwpm-J9cj7Mj-1" source="hw4l8XlQ-EuHjzOeu1GC-2" target="G1f2p_ybyInNnvEnaiqV-60" edge="1">
          <mxGeometry relative="1" as="geometry">
            <Array as="points">
              <mxPoint x="415" y="1095" />
            </Array>
          </mxGeometry>
        </mxCell>
        <mxCell id="hw4l8XlQ-EuHjzOeu1GC-7" value="推送过机" style="edgeLabel;html=1;align=center;verticalAlign=middle;resizable=0;points=[];fontSize=16;fontColor=#007FFF;" parent="hw4l8XlQ-EuHjzOeu1GC-6" vertex="1" connectable="0">
          <mxGeometry x="-0.4175" y="-106" relative="1" as="geometry">
            <mxPoint as="offset" />
          </mxGeometry>
        </mxCell>
        <UserObject label="RS" id="hw4l8XlQ-EuHjzOeu1GC-2">
          <mxCell style="rounded=1;whiteSpace=wrap;html=1;fontSize=24;fillColor=#FFFF00;" parent="uGnxBZqAEwpm-J9cj7Mj-1" vertex="1">
            <mxGeometry x="345" y="770" width="140" height="30" as="geometry" />
          </mxCell>
        </UserObject>
      </root>
    </mxGraphModel>
  </diagram>
</mxfile>
